<?xml version="1.0" encoding="UTF-8"?>
<svg id="Calque_2" data-name="Calque 2" xmlns="http://www.w3.org/2000/svg" viewBox="0 0 276.32 188.44">
  <g id="Calque_1-2" data-name="Calque 1">
    <path d="M52.62,188.44c-8.46,0-16.62-5-23.12-9.72-.66-.47-7.74-5.61-14.59-12.47C3.5,154.81-1.28,144.73.29,135.43c1.02-6.02,5.12-14.04,18.87-18.14l58.11-19.26,26.52-72.48c2.8-7.67,6.86-13.83,12.08-18.3C121.38,2.54,127.85.03,134.58,0c.04,0,.08,0,.11,0,6.67,0,13.1,2.44,18.59,7.06,5.24,4.41,9.34,10.51,12.19,18.13l14.46,38.81,68.29-22.63.32-.08c13.37-3.56,20.27,2.16,23.19,5.88,4.83,6.16,5.81,14.95,3.09,27.68-1.69,7.89-4.89,17.56-9.51,28.74-7.66,18.54-16.61,34.97-16.98,35.66l-.2.37-.23.36c-7.15,10.98-13.31,18.81-18.83,23.95-6.88,6.41-13.41,9.17-19.96,8.44-3.72-.41-9.12-2.23-13.74-8.54-2.15-2.94-4.04-6.68-5.94-11.77l-22.61-60.69-72.64,24.07-16.28,44.48c-.46,1.27-.92,2.58-1.36,3.85-3.34,9.55-7.13,20.38-17.87,23.73-2.02.63-4.04.91-6.04.91ZM22.04,139.61c.59,1.77,2.82,5.8,9.05,11.88,5.51,5.38,11.12,9.43,11.18,9.47l.06.04c5.35,3.88,8.26,5.05,9.54,5.4,1.26-1.94,2.89-6.61,4.02-9.84.47-1.33.95-2.71,1.47-4.13l10.32-28.2-41.98,13.91-.18.05c-1.81.53-2.88,1.05-3.47,1.4ZM187.57,84.51l22.33,59.93c.94,2.53,1.71,4.16,2.29,5.21,2.55-1.9,7.91-7.11,17.14-21.22,1.26-2.34,8.44-15.84,14.82-30.9,9.03-21.33,10.3-31.24,10.28-35.18l-66.86,22.16ZM134.69,21.86h-.02c-3.81.02-7.87,4.41-10.34,11.19l-20.56,56.19,55.4-18.36-14.18-38.05c-2.49-6.67-6.54-10.98-10.3-10.98Z"/>
  </g>
</svg>