<svg xmlns="http://www.w3.org/2000/svg" style="display:none">
  <symbol id="icon-menu" viewBox="0 0 24 24">
    <path fill="none" stroke="currentColor" stroke-linecap="round" stroke-linejoin="round" stroke-width="2" d="M4 7h16M4 12h16M4 17h16" />
  </symbol>
  <symbol id="icon-globe" viewBox="0 0 24 24">
    <circle cx="12" cy="12" r="10" fill="none" stroke="currentColor" stroke-width="2"></circle>
    <path d="M2 12h20" fill="none" stroke="currentColor" stroke-width="2"></path>
    <path d="M12 2a14.5 14.5 0 0 0 0 20 14.5 14.5 0 0 0 0-20" fill="none" stroke="currentColor" stroke-width="2"></path>
  </symbol>
  <symbol id="icon-search" viewBox="0 0 24 24">
    <circle cx="11" cy="11" r="7" fill="none" stroke="currentColor" stroke-width="2"></circle>
    <path d="m20 20-3-3" fill="none" stroke="currentColor" stroke-width="2"></path>
  </symbol>
  <symbol id="icon-eye" viewBox="0 0 24 24">
    <path d="M3 10s2-6 9-6 9 6 9 6-2 6-9 6-9-6-9-6z" fill="none" stroke="currentColor" stroke-width="2"></path>
    <circle cx="12" cy="10" r="2" fill="none" stroke="currentColor" stroke-width="2"></circle>
  </symbol>
  <symbol id="icon-arrow-collapse" viewBox="0 0 24 24">
    <path d="M12 5v14" fill="none" stroke="currentColor" stroke-width="2"></path>
    <path d="m18 13-6 6-6-6" fill="none" stroke="currentColor" stroke-width="2"></path>
    <path d="m6 11 6-6 6 6" fill="none" stroke="currentColor" stroke-width="2"></path>
  </symbol>
  <symbol id="icon-structure" viewBox="0 0 24 24">
    <path d="M21 16V8" fill="none" stroke="currentColor" stroke-width="2"></path>
    <path d="M18.5 5.5 12 3 5.5 5.5" fill="none" stroke="currentColor" stroke-width="2"></path>
    <path d="M3 8v8" fill="none" stroke="currentColor" stroke-width="2"></path>
    <path d="m4 19 8 2 8-2" fill="none" stroke="currentColor" stroke-width="2"></path>
    <path d="M12 3v19" fill="none" stroke="currentColor" stroke-width="2"></path>
  </symbol>
  <symbol id="icon-expand" viewBox="0 0 24 24">
    <path d="M20 17H4" fill="none" stroke="currentColor" stroke-width="2"></path>
    <path d="M16 3h5v5" fill="none" stroke="currentColor" stroke-width="2"></path>
    <path d="m21 3-7.5 7.5" fill="none" stroke="currentColor" stroke-width="2"></path>
    <path d="m8 8-5-5v5" fill="none" stroke="currentColor" stroke-width="2"></path>
    <path d="M4 3h5" fill="none" stroke="currentColor" stroke-width="2"></path>
    <path d="m13.5 13.5 7.5 7.5v-5" fill="none" stroke="currentColor" stroke-width="2"></path>
    <path d="M20 21h-5" fill="none" stroke="currentColor" stroke-width="2"></path>
    <path d="m3 16 5 5h-5z" fill="none" stroke="currentColor" stroke-width="2"></path>
    <path d="M8 16v5" fill="none" stroke="currentColor" stroke-width="2"></path>
    <path d="M16 8V3" fill="none" stroke="currentColor" stroke-width="2"></path>
  </symbol>
  <symbol id="icon-list-arrow" viewBox="0 0 24 24">
    <path d="m5 8 6 6-6 6" fill="none" stroke="currentColor" stroke-width="2"></path>
    <path d="M13 6h6" fill="none" stroke="currentColor" stroke-width="2"></path>
    <path d="M13 12h6" fill="none" stroke="currentColor" stroke-width="2"></path>
    <path d="M13 18h6" fill="none" stroke="currentColor" stroke-width="2"></path>
  </symbol>
</svg>
